# xmcd
#
# Track frame offsets: 
#        150
#        10120
#        22706
#        33557
#        44901
#        55996
#        65360
#        78022
#        89231
#        101457
#        112607
#        125790
#        136362
#        149780
#        159799
#        170345
#        184286
#        194716
#        208465
#        220842
#        235186
#        245562
#
# Disc length: 3439 seconds
#
# Revision: 0
# Processed by: cddbd v1.5.2PL0 Copyright (c) Steve Scherf et al.
# Submitted via: ExactAudioCopy v1.0b3
#
DISCID=430d6d16
DTITLE=The Crows - Gee Its
DYEAR=1900
DGENRE=Oldies
TTITLE0=Gee
TTITLE1=I Love You So
TTITLE2=Baby
TTITLE3=Heartbreaker
TTITLE4=No Help Wanted
TTITLE5=Baby Doll
TTITLE6=Untrue
TTITLE7=Call The Doctor
TTITLE8=Miss You
TTITLE9=I Really Really Love You
TTITLE10=Seven Lonely Days
TTITLE11=Prefidia
TTITLE12=Sweet Sue
TTITLE13=Mambo Shevitz
TTITLE14=Baby (Alternative)
TTITLE15=Untrue (Alternative)
TTITLE16=Perfida (Alternative)
TTITLE17=4 Notes - I Cant Get Started
TTITLE18=4 Notes - Lulabelle Blues
TTITLE19=4 Notes - Is It True
TTITLE20=4 Notes - My Mothers Lullabye
TTITLE21=4 Notes - Lulabelle Blues (Alternative)
EXTD=
EXTT0=
EXTT1=
EXTT2=
EXTT3=
EXTT4=
EXTT5=
EXTT6=
EXTT7=
EXTT8=
EXTT9=
EXTT10=
EXTT11=
EXTT12=
EXTT13=
EXTT14=
EXTT15=
EXTT16=
EXTT17=
EXTT18=
EXTT19=
EXTT20=
EXTT21=
PLAYORDER=
